<svg viewBox="0 0 500 290" xmlns="http://www.w3.org/2000/svg">
    <defs>
        <style>
            text { font-family: 'JetBrains Mono', Consolas, 'Courier New', monospace; font-size: 14px; }
            .prompt { fill: #f59e0b; font-weight: 600; }
            .cmd { fill: #ffffff; font-weight: 600; }
            .key { fill: #38bdf8; }
            .text { fill: #c9d1d9; }
            .string { fill: #a5d6ff; }
            
            .window { fill: #0d1117; stroke: #30363d; stroke-width: 1.5; rx: 8px; }
            .header-bar { fill: #161b22; rx: 8px; }
            .dot-red { fill: #ff5f56; }
            .dot-yellow { fill: #ffbd2e; }
            .dot-green { fill: #27c93f; }
            .title { fill: #8b949e; font-size: 12px; font-family: sans-serif; }
            
            .cursor { fill: #c9d1d9; animation: blink 1s step-end infinite; }
            @keyframes blink { 50% { opacity: 0; } }
        </style>
        <pattern id="scanlines" width="4" height="4" patternUnits="userSpaceOnUse">
            <line x1="0" y1="0" x2="4" y2="0" stroke="#ffffff" stroke-width="1"/>
        </pattern>
    </defs>

    <rect x="2" y="2" width="496" height="286" class="window" />
    
    <path d="M 2 10 Q 2 2 10 2 L 490 2 Q 498 2 498 10 L 498 30 L 2 30 Z" class="header-bar" />
    <circle cx="20" cy="16" r="6" class="dot-red" />
    <circle cx="40" cy="16" r="6" class="dot-yellow" />
    <circle cx="60" cy="16" r="6" class="dot-green" />
    <text x="250.0" y="20" text-anchor="middle" class="title">whoami.yaml - bash</text>

    <rect x="2" y="30" width="496" height="258" fill="url(#scanlines)" opacity="0.03" pointer-events="none" />

    <g transform="translate(10, 10)">
        <text x="20" y="60" class="prompt">sabari@ai-core:~$ </text><text x="170" y="60" class="cmd">cat whoami.yaml</text><text x="20" y="90" class="key">name</text><text x="110" y="90" class="text">: Sabari Vadivelan S</text><text x="20" y="114" class="key">role</text><text x="110" y="114" class="text">: AI Engineer &amp; Full Stack</text><text x="20" y="138" class="key">location</text><text x="110" y="138" class="text">: Puducherry, India</text><text x="20" y="162" class="key">education</text><text x="110" y="162" class="text">: B.Tech CSE</text><text x="20" y="186" class="key">status</text><text x="110" y="186" class="text">: Open to collaboration</text><text x="20" y="210" class="key">focus</text><text x="110" y="210" class="text">: LLMs · Agentic AI · CV</text><text x="20" y="234" class="key">contact</text><text x="110" y="234" class="text">: sabari132005@gmail.com</text><rect x="20" y="258" width="10" height="18" class="cursor" />
    </g>
</svg>